# xmcd
#
# Track frame offsets:
#	150
#	27399
#	46886
#	59035
#	78827
#	114734
#	133578
#	145017
#	163445
#	206780
#	221505
#	240022
#	255583
#
# Disc length: 3717 seconds
#
# Revision: 0
# Processed by: cddbd v1.5.2PL0 Copyright (c) Steve Scherf et al.
# Submitted via: dBpowerAMP V4.0
#
DISCID=ba0e830d
DTITLE=Mariachi Juvenil Zapotiltic - Mi tierra
DYEAR=2003
DGENRE=Ranchero
TTITLE0=Popurri de Sones.
TTITLE1=Fuerte no soy
TTITLE2=Flor sin Jardin
TTITLE3=A los Cuatro Vientos
TTITLE4=Popurri Bello Veracurz
TTITLE5=Urge
TTITLE6=Delante de mi
TTITLE7=Cielo Rojo
TTITLE8=Poporri Joan Sebastian
TTITLE9=Secreto de Amor
TTITLE10=Te doy la Libertad
TTITLE11=El Columpio
TTITLE12=El Dicharachero
EXTD=Mariachi Juvenil Zapotiltic
EXTT0=
EXTT1=
EXTT2=
EXTT3=
EXTT4=
EXTT5=
EXTT6=
EXTT7=
EXTT8=
EXTT9=
EXTT10=
EXTT11=
EXTT12=
PLAYORDER=
